<svg xmlns="http://www.w3.org/2000/svg" height="48" viewBox="0 -960 960 960" width="48"><path fill="#ECA72C" d="M80-200v-67.333h800V-200H80Zm40.667-250-44-24.667 38-65.333H40v-50h74.667l-38-64.667 44-24.666 36.666 64 36.667-64 44 24.666L200-590h74.667v50H200l38 65.333L194-450l-36.667-64.667L120.667-450Zm322.666 0-44-26 38.001-65.334h-74.667v-49.999h74.667L399.333-656l44-24.667 36.667 64 36.667-64 44 24.667-38.001 64.667h74.667v49.999h-74.667L560.667-476l-44 26L480-514.667 443.333-450ZM766-450l-44-26 38-65.334h-74.667v-49.999H760L722-656l44-24.667 36.667 64 36.666-64 44 24.667-38 64.667H920v49.999h-74.667l38 65.334-44 26-36.666-64.667L766-450Z"/></svg>